<svg width="400" height="400" viewBox="0 0 400 400" xmlns="http://www.w3.org/2000/svg">
  <rect width="100%" height="100%" fill="white" />
  
  <circle cx="200" cy="200" r="150" stroke="#333333" stroke-width="2" fill="none" />

  <path d="M 200 50 
           L 329.9 275 
           L 70.1 275 Z" 
        stroke="#e74c3c" stroke-width="2" stroke-linejoin="round" fill="none" />

  <path d="M 296.4 85.1 
           L 251.3 341.0 
           L 347.7 174.0 
           L 103.6 85.1 
           L 148.7 341.0 
           L 52.3 174.0 Z" 
        stroke="#3498db" stroke-width="2" stroke-linejoin="round" fill="none" />

  <g fill="#2c3e50">
    <circle cx="200" cy="50" r="4" />     <circle cx="296.4" cy="85.1" r="4" />   <circle cx="347.7" cy="174.0" r="4" />  <circle cx="329.9" cy="275.0" r="4" />  <circle cx="251.3" cy="341.0" r="4" />  <circle cx="148.7" cy="341.0" r="4" />  <circle cx="70.1" cy="275.0" r="4" />   <circle cx="52.3" cy="174.0" r="4" />   <circle cx="103.6" cy="85.1" r="4" />   </g>

  <g font-family="Arial, sans-serif" font-size="18" font-weight="bold" text-anchor="middle" dominant-baseline="central" fill="#333333">
    <text x="200" y="30">9</text>
    <text x="312.5" y="65.9">1</text>
    <text x="372.4" y="169.6">2</text>
    <text x="351.6" y="287.5">3</text>
    <text x="259.9" y="364.5">4</text>
    <text x="140.1" y="364.5">5</text>
    <text x="48.4" y="287.5">6</text>
    <text x="27.6" y="169.6">7</text>
    <text x="87.5" y="65.9">8</text>
  </g>
</svg>